<?xml version="1.0" encoding="UTF-8"?>
<svg version="1.1" xmlns="http://www.w3.org/2000/svg" width="32" height="32">
<path d="M0 0 C10.56 0 21.12 0 32 0 C32 10.56 32 21.12 32 32 C21.44 32 10.88 32 0 32 C0 21.44 0 10.88 0 0 Z " fill="#FDFDFD" transform="translate(0,0)"/>
<path d="M0 0 C1.00109515 3.31070838 1.10356134 6.30084769 1.0625 9.75 C1.05347656 10.73484375 1.04445313 11.7196875 1.03515625 12.734375 C1.02355469 13.48203125 1.01195312 14.2296875 1 15 C2.65 15 4.3 15 6 15 C5.67 15.99 5.34 16.98 5 18 C0.05 18 -4.9 18 -10 18 C-9 15 -9 15 -8 14 C-8.66 13.01 -9.32 12.02 -10 11 C-10.23259531 7.15442427 -9.81051004 3.92629719 -7.25 1 C-4.65550914 -0.15310705 -2.80997777 -0.23416481 0 0 Z " fill="#F7F3EF" transform="translate(18,6)"/>
<path d="M0 0 C0.99 0 1.98 0 3 0 C4.33224462 3.99673385 4.13442113 7.83294503 4 12 C3.67 12.66 3.34 13.32 3 14 C1.68 14 0.36 14 -1 14 C-1.22331199 12.41870971 -1.42804644 10.83478911 -1.625 9.25 C-1.74101562 8.36828125 -1.85703125 7.4865625 -1.9765625 6.578125 C-2.00207817 3.77140122 -1.44843844 2.36615134 0 0 Z " fill="#A58572" transform="translate(15,6)"/>
<path d="M0 0 C-0.165 1.216875 -0.33 2.43375 -0.5 3.6875 C-0.89454541 6.81607836 -1.09869725 9.84168804 -1 13 C-2.9375 12.625 -2.9375 12.625 -5 12 C-6.54163175 8.9167365 -6.29747535 6.39121901 -6 3 C-3.96080228 0.89282902 -2.95416573 0 0 0 Z " fill="#F2E0C9" transform="translate(15,6)"/>
<path d="M0 0 C0.66 0 1.32 0 2 0 C6 5.02857143 6 5.02857143 6 8.25 C5 10 5 10 1 12 C0.67 8.04 0.34 4.08 0 0 Z " fill="#F5E3CB" transform="translate(18,6)"/>
<path d="M0 0 C2.97 0.33 5.94 0.66 9 1 C8.67 1.99 8.34 2.98 8 4 C4.7 4 1.4 4 -2 4 C-1.34 2.68 -0.68 1.36 0 0 Z " fill="#EFE9E6" transform="translate(15,20)"/>
<path d="M0 0 C-0.3125 1.875 -0.3125 1.875 -1 4 C-1.99 4.66 -2.98 5.32 -4 6 C-4.33 4.68 -4.66 3.36 -5 2 C-2 0 -2 0 0 0 Z " fill="#FBF8F4" transform="translate(23,16)"/>
<path d="M0 0 C0.66 0 1.32 0 2 0 C1.67 1.98 1.34 3.96 1 6 C0.34 6 -0.32 6 -1 6 C-1.33 6.66 -1.66 7.32 -2 8 C-1.125 2.25 -1.125 2.25 0 0 Z " fill="#645851" transform="translate(15,6)"/>
</svg>
