<?xml version="1.0" encoding="UTF-8"?>
<svg version="1.1" xmlns="http://www.w3.org/2000/svg" width="500" height="500">
<path d="M0 0 C165 0 330 0 500 0 C500 165 500 330 500 500 C335 500 170 500 0 500 C0 335 0 170 0 0 Z " fill="#FEFEFE" transform="translate(0,0)"/>
<path d="M0 0 C1.04027344 0.804375 1.04027344 0.804375 2.1015625 1.625 C7.1339546 5.69614866 10.46414183 10.01391173 13 16 C13 16.66 13 17.32 13 18 C13.58652344 18.26296875 14.17304688 18.5259375 14.77734375 18.796875 C22.49895956 22.97658971 27.75500277 31.34170648 33.015625 38.16796875 C35.54476786 41.44191563 38.15727804 44.63783121 40.79541016 47.82421875 C48.01560575 56.56660247 54.62465797 65.62752924 61 75 C61.64437012 75.94536621 62.28874023 76.89073242 62.95263672 77.86474609 C92.9917956 122.07158546 92.9917956 122.07158546 89.0625 142.9375 C85.5571085 155.58311792 74.57696114 165.76075794 64 173 C63.34 173 62.68 173 62 173 C62.433125 174.17433594 62.86625 175.34867188 63.3125 176.55859375 C67.24989209 187.72835957 71.09000904 199.89260493 67.109375 211.625 C65.91999022 213.71831721 64.68199728 215.28358846 63 217 C62.52691406 217.52464844 62.05382812 218.04929687 61.56640625 218.58984375 C36.64337955 243.01565296 -19.24879952 241.4948194 -52.26708984 241.21728516 C-55.84539481 241.16292057 -59.42236751 241.08756262 -63 241 C-63.99789551 240.97921387 -64.99579102 240.95842773 -66.02392578 240.93701172 C-90.83295254 240.35138161 -113.56260877 235.70594082 -131.375 217.05859375 C-144.67021931 202.00914412 -152.33827831 182.31915594 -157.4140625 163.17138672 C-157.91284876 161.32296796 -158.46640882 159.48947144 -159.03125 157.66015625 C-162.37675069 145.87346168 -163.85459639 129.5361067 -158.5625 118.1875 C-156.26933136 114.36918357 -153.57319393 111.57132343 -150.375 108.5 C-144.65766749 102.57233084 -144.16181349 95.79798008 -142.87890625 87.98046875 C-139.49233738 67.49386557 -128.21447771 49.85044399 -111.703125 37.6015625 C-103.46426034 31.70495099 -94.60529975 27.12431066 -85.375 23 C-84.36203857 22.54512207 -84.36203857 22.54512207 -83.32861328 22.08105469 C-79.9254623 20.61579717 -77.77211351 20 -74 20 C-73.690625 18.8553125 -73.690625 18.8553125 -73.375 17.6875 C-69.51117829 7.32543268 -63.97232484 -2.20516695 -54 -7.6328125 C-35.32674348 -15.80236223 -15.58867302 -12.81598415 0 0 Z " fill="#F8E6CE" transform="translate(287,78)"/>
<path d="M0 0 C1.52947266 -0.02513672 1.52947266 -0.02513672 3.08984375 -0.05078125 C6.46775922 0.36202577 8.28024166 1.40385179 11.0625 3.3125 C11.949375 3.786875 12.83625 4.26125 13.75 4.75 C17.04373644 6.97549759 17.80825309 9.16755803 18.66015625 13.00390625 C18.89025391 14.42509766 18.89025391 14.42509766 19.125 15.875 C19.61011001 18.82976099 20.11365685 21.46597056 21.0625 24.3125 C21.8695483 32.26391029 20.4427411 38.1643199 17.0625 45.3125 C16.47443096 46.68548127 15.89050229 48.06025052 15.3125 49.4375 C14.9 50.38625 14.4875 51.335 14.0625 52.3125 C15.01125 52.250625 15.96 52.18875 16.9375 52.125 C23.34614094 52.16407708 29.16462003 53.57965307 33.9375 57.9375 C38.734396 65.55609952 40.77555744 72.76159563 42.0625 81.625 C43.22983615 89.07261649 44.53024074 95.92426111 47.42578125 102.91015625 C48.83026137 108.20926837 46.4370638 114.15113259 45.125 119.375 C44.95548828 120.06916016 44.78597656 120.76332031 44.61132812 121.47851562 C43.88237624 124.39709484 43.11621629 127.18471178 41.94921875 129.9609375 C40.9081738 132.72177037 40.8595725 134.92904596 40.8125 137.875 C40.38827007 144.93482632 38.42981091 151.17426029 36.28173828 157.8840332 C34.78631717 162.63711257 33.6801498 167.08126318 33.1875 172.0625 C32.38704925 178.9997398 30.34497375 185.43326012 28.1875 192.0625 C27.84734863 193.1359668 27.50719727 194.20943359 27.15673828 195.31542969 C26.81884277 196.31993164 26.48094727 197.32443359 26.1328125 198.359375 C25.83133301 199.26526367 25.52985352 200.17115234 25.21923828 201.10449219 C23.84130315 203.73472548 22.73782549 204.18590463 20.0625 205.3125 C19.04323606 207.27402246 19.04323606 207.27402246 18.5 209.5625 C17.43020456 213.41642147 15.87823492 216.74892525 14.0625 220.3125 C9.77581312 220.36225174 5.48928303 220.3983847 1.20239258 220.42236328 C-0.25336641 220.4323685 -1.70910557 220.44597696 -3.16479492 220.46337891 C-5.2674654 220.48787044 -7.36986824 220.49903794 -9.47265625 220.5078125 C-10.734729 220.51828613 -11.99680176 220.52875977 -13.29711914 220.53955078 C-17.13999766 220.29987021 -20.31850741 219.61727074 -23.9375 218.3125 C-25.31618281 216.68314759 -26.65024093 215.01500393 -27.9375 213.3125 C-28.96875 212.9 -30 212.4875 -31.0625 212.0625 C-33.9375 210.3125 -33.9375 210.3125 -34.58325195 208.46948242 C-34.71691162 207.73060791 -34.85057129 206.9917334 -34.98828125 206.23046875 C-35.14522461 205.41980957 -35.30216797 204.60915039 -35.46386719 203.77392578 C-35.62016602 202.96165527 -35.77646484 202.14938477 -35.9375 201.3125 C-36.27370754 199.93661069 -36.61847598 198.56277901 -36.97265625 197.19140625 C-39.54933364 186.59717048 -40.33493167 176.44242628 -40.57446289 165.55200195 C-40.75465622 158.65793846 -41.31851763 152.47893828 -43.21875 145.828125 C-44.59442119 141.01327585 -45.06091918 136.43287276 -45 131.4375 C-44.99097656 130.47070312 -44.98195312 129.50390625 -44.97265625 128.5078125 C-44.96105469 127.78335938 -44.94945312 127.05890625 -44.9375 126.3125 C-45.80375 126.539375 -46.67 126.76625 -47.5625 127 C-51.72578716 127.38548955 -53.50583174 126.65227382 -56.9375 124.3125 C-61.63686598 114.68532663 -60.28749031 102.88746878 -57.203125 92.9453125 C-56.69263705 91.52323894 -56.17439012 90.10392685 -55.6484375 88.6875 C-54.48022921 84.78491406 -54.15615528 80.76346127 -53.7578125 76.71875 C-52.03494931 69.56476571 -47.6657299 63.80991373 -43.33251953 57.984375 C-36.73759855 49.02671444 -32.63546642 40.16177963 -28.96972656 29.69116211 C-24.74541589 17.67180638 -19.13531556 8.1037172 -8.0390625 1.1171875 C-5.28567753 0.06291742 -2.94353661 0.0111357 0 0 Z " fill="#947360" transform="translate(255.9375,94.6875)"/>
<path d="M0 0 C1.04027344 0.804375 1.04027344 0.804375 2.1015625 1.625 C7.1339546 5.69614866 10.46414183 10.01391173 13 16 C13 16.66 13 17.32 13 18 C13.58652344 18.26296875 14.17304688 18.5259375 14.77734375 18.796875 C22.49895956 22.97658971 27.75500277 31.34170648 33.015625 38.16796875 C35.54476786 41.44191563 38.15727804 44.63783121 40.79541016 47.82421875 C48.01560575 56.56660247 54.62465797 65.62752924 61 75 C61.64437012 75.94536621 62.28874023 76.89073242 62.95263672 77.86474609 C92.9917956 122.07158546 92.9917956 122.07158546 89.0625 142.9375 C85.5571085 155.58311792 74.57696114 165.76075794 64 173 C63.34 173 62.68 173 62 173 C62.433125 174.17433594 62.86625 175.34867188 63.3125 176.55859375 C67.24989209 187.72835957 71.09000904 199.89260493 67.109375 211.625 C65.91999022 213.71831721 64.68199728 215.28358846 63 217 C62.52691406 217.52464844 62.05382812 218.04929687 61.56640625 218.58984375 C36.64337955 243.01565296 -19.24879952 241.4948194 -52.26708984 241.21728516 C-55.84539481 241.16292057 -59.42236751 241.08756262 -63 241 C-63.99789551 240.97921387 -64.99579102 240.95842773 -66.02392578 240.93701172 C-90.83295254 240.35138161 -113.56260877 235.70594082 -131.375 217.05859375 C-144.67021931 202.00914412 -152.33827831 182.31915594 -157.4140625 163.17138672 C-157.91284876 161.32296796 -158.46640882 159.48947144 -159.03125 157.66015625 C-162.37675069 145.87346168 -163.85459639 129.5361067 -158.5625 118.1875 C-156.26933136 114.36918357 -153.57319393 111.57132343 -150.375 108.5 C-144.65766749 102.57233084 -144.16181349 95.79798008 -142.87890625 87.98046875 C-139.49233738 67.49386557 -128.21447771 49.85044399 -111.703125 37.6015625 C-103.46426034 31.70495099 -94.60529975 27.12431066 -85.375 23 C-84.36203857 22.54512207 -84.36203857 22.54512207 -83.32861328 22.08105469 C-79.9254623 20.61579717 -77.77211351 20 -74 20 C-73.690625 18.8553125 -73.690625 18.8553125 -73.375 17.6875 C-69.51117829 7.32543268 -63.97232484 -2.20516695 -54 -7.6328125 C-35.32674348 -15.80236223 -15.58867302 -12.81598415 0 0 Z M-62.88696289 1.28222656 C-65.32286632 4.41526839 -67.08662479 7.70787794 -68.81640625 11.2578125 C-69.16135635 11.95691742 -69.50630646 12.65602234 -69.86170959 13.37631226 C-73.89074316 21.6577558 -77.35266122 30.17902548 -80.77905273 38.72363281 C-88.8398387 58.74851851 -99.20485193 73.19529998 -117.75 85 C-119.8707518 86.38394648 -121.99054834 87.76935792 -124.109375 89.15625 C-125.12193359 89.81496094 -126.13449219 90.47367187 -127.17773438 91.15234375 C-147.79670726 104.46887464 -147.79670726 104.46887464 -159.375 125.4375 C-164.14910183 153.25395044 -150.75531653 187.53877439 -134.890625 209.984375 C-133.00052326 212.40194699 -131.04704565 214.71462887 -129 217 C-128.47277344 217.62003906 -127.94554687 218.24007812 -127.40234375 218.87890625 C-113.41893371 234.2366072 -93.10199114 237.94420777 -73.32260132 238.90460205 C-2.44073427 242.69727667 -2.44073427 242.69727667 61 217 C65.89023969 211.72368876 67.52269001 207.111779 67.28515625 199.99609375 C65.80300226 184.42332507 58.66766607 170.52762954 52.40200806 156.41972351 C42.70917273 134.59451928 36.89026228 113.06201694 32.31982422 89.62988281 C24.8512832 39.01743857 24.8512832 39.01743857 -3 -1 C-3.87140625 -1.58910156 -4.7428125 -2.17820312 -5.640625 -2.78515625 C-22.48609528 -13.45227291 -48.5508869 -14.15748059 -62.88696289 1.28222656 Z " fill="#F8E6CF" transform="translate(287,78)"/>
<path d="M0 0 C-0.0721875 0.86753906 -0.144375 1.73507813 -0.21875 2.62890625 C-3.90746343 48.35656282 -3.90746343 48.35656282 12 90 C22.39762777 101.01208242 38.62621256 105.04046158 53.015625 107.9921875 C53.77278809 108.14918625 54.52995117 108.306185 55.31005859 108.46794128 C58.41803729 109.10683697 61.5265023 109.73791467 64.64404297 110.32861328 C66.96186346 110.7726129 69.26924448 111.25410658 71.578125 111.7421875 C72.6326889 111.92695145 72.6326889 111.92695145 73.70855713 112.115448 C75.68457031 112.55029297 75.68457031 112.55029297 79 114 C80.78027344 117.53955078 80.78027344 117.53955078 82 121 C84.91666667 122.66666667 84.91666667 122.66666667 88 124 C88.66 124.86625 89.32 125.7325 90 126.625 C92.61372438 129.7287977 94.01988002 129.55689046 98 130 C100.45383821 130.14285463 102.91022218 130.24533701 105.3671875 130.31640625 C106.38656906 130.3475779 106.38656906 130.3475779 107.42654419 130.37937927 C109.57593666 130.4442363 111.7254407 130.50345941 113.875 130.5625 C115.3411569 130.60574612 116.80730294 130.64936225 118.2734375 130.69335938 C121.84884275 130.79985104 125.42437037 130.90129409 129 131 C129.46623779 129.58968506 129.46623779 129.58968506 129.94189453 128.15087891 C132.01431425 121.97952475 133.96077867 116.34415632 139 112 C139.33 111.34 139.66 110.68 140 110 C141.82533218 109.08583528 143.68753853 108.24499874 145.5625 107.4375 C167.27364511 97.59668749 186.12422734 83.39409479 205 69 C207 70 207 70 208.25390625 73.421875 C208.69799814 74.86217301 209.13384343 76.30503304 209.5625 77.75 C209.78357422 78.46671875 210.00464844 79.1834375 210.23242188 79.921875 C212.71828762 88.09293824 215.11880653 96.9933742 211.5 105.1875 C204.66869464 116.99351901 191.81182425 120.72273501 179.4375 124.0625 C166.77723297 127.33378751 153.95243206 129.30224198 141 131 C139.7728125 131.17950195 138.545625 131.35900391 137.28125 131.54394531 C125.83631981 133.14178732 114.47957191 133.30686666 102.93603516 133.26074219 C99.7683579 133.2500619 96.60125348 133.26067853 93.43359375 133.2734375 C67.65761366 133.29083941 39.96599143 133.25729859 20.1940918 114.38720703 C4.94494975 99.12011576 -2.97093556 80.34657407 -9 60 C-9.22059082 59.26378418 -9.44118164 58.52756836 -9.66845703 57.76904297 C-11.89229795 50.24883349 -13.70490137 42.86502005 -14 35 C-14.03996094 34.09636719 -14.07992187 33.19273437 -14.12109375 32.26171875 C-14.41004545 19.97277293 -11.38441571 10.85690857 -2.8359375 1.67578125 C-1 0 -1 0 0 0 Z " fill="#FEFEFD" transform="translate(141,184)"/>
<path d="M0 0 C1.52947266 -0.02513672 1.52947266 -0.02513672 3.08984375 -0.05078125 C6.46775922 0.36202577 8.28024166 1.40385179 11.0625 3.3125 C11.949375 3.786875 12.83625 4.26125 13.75 4.75 C17.04373644 6.97549759 17.80825309 9.16755803 18.66015625 13.00390625 C18.89025391 14.42509766 18.89025391 14.42509766 19.125 15.875 C19.61011001 18.82976099 20.11365685 21.46597056 21.0625 24.3125 C21.99576356 33.50744099 20.12938371 41.11094072 14.8125 48.6875 C12.69269987 51.34139064 12.69269987 51.34139064 13.0625 55.3125 C9.6875 55.9375 9.6875 55.9375 6.0625 56.3125 C4.0625 54.3125 4.0625 54.3125 3.9375 51.1875 C3.97875 50.23875 4.02 49.29 4.0625 48.3125 C1.4225 47.9825 -1.2175 47.6525 -3.9375 47.3125 C-4.87876295 50.13628884 -5.07262214 51.9536015 -5.11328125 54.8828125 C-5.13712891 55.78 -5.16097656 56.6771875 -5.18554688 57.6015625 C-5.22797794 59.46852938 -5.25951569 61.33578078 -5.27929688 63.203125 C-5.48203052 69.82261422 -6.91495878 74.41220996 -9.9375 80.3125 C-6.9675 81.3025 -3.9975 82.2925 -0.9375 83.3125 C-0.9375 83.6425 -0.9375 83.9725 -0.9375 84.3125 C-4.347007 84.47485748 -6.59702007 84.46382441 -9.75 83.0625 C-13.92686102 82.07970917 -15.58121236 83.27489558 -19.29296875 85.171875 C-23.4061578 86.94595359 -27.71683103 87.56479827 -32.1171875 88.30859375 C-35.08411492 89.0806252 -35.08411492 89.0806252 -36.71484375 91.58984375 C-37.88241215 94.18982832 -38.83404319 96.70053835 -39.625 99.4375 C-40.00205078 100.70980469 -40.00205078 100.70980469 -40.38671875 102.0078125 C-41.05371881 104.40387442 -41.05371881 104.40387442 -40.9375 107.3125 C-40.2775 107.9725 -39.6175 108.6325 -38.9375 109.3125 C-39.5975 110.3025 -40.2575 111.2925 -40.9375 112.3125 C-41.2675 111.3225 -41.5975 110.3325 -41.9375 109.3125 C-43.5875 108.9825 -45.2375 108.6525 -46.9375 108.3125 C-48.74721484 103.69205519 -49.14096729 99.98867539 -48.984375 95.04296875 C-48.96409241 94.36253006 -48.94380981 93.68209137 -48.9229126 92.98103333 C-48.87756669 91.5479693 -48.82683837 90.11506645 -48.77099609 88.68237305 C-48.68814934 86.51697203 -48.62598221 84.35169909 -48.56640625 82.18554688 C-48.22466504 71.29772981 -47.7993887 62.957407 -40.875 54.25 C-35.91135427 47.58796397 -32.93617024 40.81722536 -30.1875 33 C-25.50531265 19.75071125 -20.41372307 8.90864045 -8.0390625 1.1171875 C-5.28567753 0.06291742 -2.94353661 0.0111357 0 0 Z " fill="#433F3E" transform="translate(255.9375,94.6875)"/>
<path d="M0 0 C0.64710938 0.4434375 1.29421875 0.886875 1.9609375 1.34375 C23.50641971 17.35383164 27.71032544 58.61857324 32.5 82.9375 C37.50997066 108.32622398 43.3472824 132.45166328 54 156.125 C72.0848329 196.52667095 72.0848329 196.52667095 67.125 211.671875 C65.91776561 213.72099653 64.66241828 215.30356804 63 217 C62.52691406 217.52464844 62.05382812 218.04929687 61.56640625 218.58984375 C36.64337955 243.01565296 -19.24879952 241.4948194 -52.26708984 241.21728516 C-55.84539481 241.16292057 -59.42236751 241.08756262 -63 241 C-63.99789551 240.97921387 -64.99579102 240.95842773 -66.02392578 240.93701172 C-90.83295254 240.35138161 -113.56260877 235.70594082 -131.375 217.05859375 C-144.67021931 202.00914412 -152.33827831 182.31915594 -157.4140625 163.17138672 C-157.91284876 161.32296796 -158.46640882 159.48947144 -159.03125 157.66015625 C-162.37675069 145.87346168 -163.85459639 129.5361067 -158.5625 118.1875 C-156.26933136 114.36918357 -153.57319393 111.57132343 -150.375 108.5 C-144.65766749 102.57233084 -144.16181349 95.79798008 -142.87890625 87.98046875 C-139.49233738 67.49386557 -128.21447771 49.85044399 -111.703125 37.6015625 C-103.46426034 31.70495099 -94.60529975 27.12431066 -85.375 23 C-84.36203857 22.54512207 -84.36203857 22.54512207 -83.32861328 22.08105469 C-79.9254623 20.61579717 -77.77211351 20 -74 20 C-73.690625 18.8553125 -73.690625 18.8553125 -73.375 17.6875 C-69.51117829 7.32543268 -63.97232484 -2.20516695 -54 -7.6328125 C-35.24437765 -15.83839728 -15.6801331 -12.74401256 0 0 Z M-62.88696289 1.28222656 C-65.32286632 4.41526839 -67.08662479 7.70787794 -68.81640625 11.2578125 C-69.16135635 11.95691742 -69.50630646 12.65602234 -69.86170959 13.37631226 C-73.89074316 21.6577558 -77.35266122 30.17902548 -80.77905273 38.72363281 C-88.8398387 58.74851851 -99.20485193 73.19529998 -117.75 85 C-119.8707518 86.38394648 -121.99054834 87.76935792 -124.109375 89.15625 C-125.12193359 89.81496094 -126.13449219 90.47367187 -127.17773438 91.15234375 C-147.79670726 104.46887464 -147.79670726 104.46887464 -159.375 125.4375 C-164.14910183 153.25395044 -150.75531653 187.53877439 -134.890625 209.984375 C-133.00052326 212.40194699 -131.04704565 214.71462887 -129 217 C-128.47277344 217.62003906 -127.94554687 218.24007812 -127.40234375 218.87890625 C-113.41893371 234.2366072 -93.10199114 237.94420777 -73.32260132 238.90460205 C-2.44073427 242.69727667 -2.44073427 242.69727667 61 217 C65.89023969 211.72368876 67.52269001 207.111779 67.28515625 199.99609375 C65.80300226 184.42332507 58.66766607 170.52762954 52.40200806 156.41972351 C42.70917273 134.59451928 36.89026228 113.06201694 32.31982422 89.62988281 C24.8512832 39.01743857 24.8512832 39.01743857 -3 -1 C-3.87140625 -1.58910156 -4.7428125 -2.17820312 -5.640625 -2.78515625 C-22.48609528 -13.45227291 -48.5508869 -14.15748059 -62.88696289 1.28222656 Z " fill="#EEDABF" transform="translate(287,78)"/>
<path d="M0 0 C3.82408096 3.23451261 6.75258951 6.1565948 9.125 10.5625 C8.795 11.2225 8.465 11.8825 8.125 12.5625 C7.62871094 12.29695313 7.13242187 12.03140625 6.62109375 11.7578125 C5.60208984 11.22800781 5.60208984 11.22800781 4.5625 10.6875 C3.57056641 10.16542969 3.57056641 10.16542969 2.55859375 9.6328125 C-3.39162284 7.01586331 -8.73178221 6.26355859 -15.125 6.375 C-15.81207031 6.37564453 -16.49914062 6.37628906 -17.20703125 6.37695312 C-27.5939993 6.46303297 -37.30721502 7.90511237 -47.375 10.4375 C-48.42558594 10.69402344 -49.47617188 10.95054688 -50.55859375 11.21484375 C-57.36125398 12.88818044 -64.12535166 14.6874115 -70.875 16.5625 C-69.26844763 7.73288819 -63.86248967 0.12578796 -56.875 -5.4375 C-39.3281193 -17.12320969 -15.57333169 -12.28493894 0 0 Z " fill="#FEFEFD" transform="translate(286.875,79.4375)"/>
<path d="M0 0 C1.32407554 0.81481572 2.64108701 1.64185429 3.9375 2.5 C3.5011344 8.71820976 2.16521131 12.17427634 -1.0625 17.5 C-5.34918688 17.54975174 -9.63571697 17.5858847 -13.92260742 17.60986328 C-15.37836641 17.6198685 -16.83410557 17.63347696 -18.28979492 17.65087891 C-20.3924654 17.67537044 -22.49486824 17.68653794 -24.59765625 17.6953125 C-25.859729 17.70578613 -27.12180176 17.71625977 -28.42211914 17.72705078 C-33.20829743 17.42853654 -37.58209073 16.98040927 -41.0625 13.5 C-40.9921875 11.0546875 -40.9921875 11.0546875 -40.0625 8.5 C-37.8828125 6.8828125 -37.8828125 6.8828125 -35.1875 5.625 C-34.30320313 5.19445312 -33.41890625 4.76390625 -32.5078125 4.3203125 C-30.0625 3.5 -30.0625 3.5 -27.0625 4.5 C-26.7325 3.51 -26.4025 2.52 -26.0625 1.5 C-17.3320703 -2.73765987 -8.71006544 -4.76204512 0 0 Z " fill="#DEB599" transform="translate(271.0625,297.5)"/>
<path d="M0 0 C0.33 0 0.66 0 1 0 C0.96447021 1.145896 0.92894043 2.29179199 0.89233398 3.47241211 C0.76234163 7.70827075 0.63904964 11.94430211 0.51782227 16.18041992 C0.46432466 18.0167375 0.40898954 19.85300247 0.35180664 21.68920898 C0.27011136 24.32263847 0.19494262 26.95618405 0.12109375 29.58984375 C0.08054115 30.82890724 0.08054115 30.82890724 0.03916931 32.09300232 C-0.01283011 34.0613581 -0.01187837 36.03099331 0 38 C0.33 38.33 0.66 38.66 1 39 C1.04063832 40.66617115 1.042721 42.33388095 1 44 C2.65 44 4.3 44 6 44 C8.43425238 48.96993194 9.34615998 52.34605369 9 58 C9.763125 57.649375 10.52625 57.29875 11.3125 56.9375 C14 56 14 56 17 57 C-0.1218623 63.97748073 -0.1218623 63.97748073 -6.3125 61.875 C-9.93045859 59.35084285 -10.63994558 56.81188675 -11.484375 52.5625 C-12.50248176 42.74076422 -11.13953442 33.60844912 -7.7109375 24.375 C-6.83060662 21.43411441 -6.49865837 18.54566825 -6.125 15.5 C-5.3010632 9.45542915 -3.40287981 5.02639117 0 0 Z " fill="#8A6E5D" transform="translate(208,159)"/>
<path d="M0 0 C0.99 0.66 1.98 1.32 3 2 C2.01 2.33 1.02 2.66 0 3 C5.94 4.485 5.94 4.485 12 6 C10.02 6.99 10.02 6.99 8 8 C10.64 8.66 13.28 9.32 16 10 C16 10.33 16 10.66 16 11 C11.545 11.495 11.545 11.495 7 12 C9.64 12.99 12.28 13.98 15 15 C15 15.33 15 15.66 15 16 C10.38 16 5.76 16 1 16 C1.99 16.99 2.98 17.98 4 19 C1.89551062 18.85890014 -0.2085877 18.71195825 -2.3125 18.5625 C-3.48425781 18.48128906 -4.65601563 18.40007812 -5.86328125 18.31640625 C-9 18 -9 18 -12 17 C-19.12845389 16.07594116 -23.81346068 18.48114304 -30.14453125 21.6875 C-33 23 -33 23 -36 23 C-36.33 18.71 -36.66 14.42 -37 10 C-36.07960937 9.78085938 -35.15921875 9.56171875 -34.2109375 9.3359375 C-27.34087348 7.6149235 -21.0117616 5.69863315 -14.5625 2.75 C-9.30649594 0.39550044 -5.71700262 -0.86294379 0 0 Z " fill="#DDB498" transform="translate(253,194)"/>
<path d="M0 0 C2.64 0.66 5.28 1.32 8 2 C8.226875 3.11375 8.45375 4.2275 8.6875 5.375 C9.60623658 9.16038373 9.60623658 9.16038373 12.625 10.4375 C13.40875 10.623125 14.1925 10.80875 15 11 C14.89367215 17.16701541 13.42051984 21.86894749 10.6875 27.375 C10.24361938 28.28499756 10.24361938 28.28499756 9.79077148 29.21337891 C8.01664623 32.64281142 6.43444954 35.14135672 3 37 C-3.13440022 36.78475789 -3.13440022 36.78475789 -5.71484375 34.4453125 C-6.35099609 33.72988281 -6.35099609 33.72988281 -7 33 C-6.35289062 31.90171875 -5.70578125 30.8034375 -5.0390625 29.671875 C-2.48963186 24.57301372 -2.40659901 19.86672318 -2.375 14.25 C-2.34942474 12.40090862 -2.31587724 10.55190619 -2.2734375 8.703125 C-2.26747559 7.89520508 -2.26151367 7.08728516 -2.25537109 6.25488281 C-1.97525982 3.78154851 -1.23488822 2.14341751 0 0 Z " fill="#DFB599" transform="translate(252,141)"/>
<path d="M0 0 C2.51625 -0.103125 5.0325 -0.20625 7.625 -0.3125 C8.79603271 -0.38078003 8.79603271 -0.38078003 9.99072266 -0.45043945 C13.95686214 -0.52847342 16.3332651 -0.1507921 19.4609375 2.39453125 C22.20724652 5.21266682 22.88739218 5.98652958 23.3125 9.8125 C22.84670088 14.56365098 20.26038165 16.73961835 17 20 C18.98 22.97 20.96 25.94 23 29 C19 29 19 29 17.515625 27.5390625 C17.09796875 26.90742188 16.6803125 26.27578125 16.25 25.625 C15.82203125 24.99851562 15.3940625 24.37203125 14.953125 23.7265625 C14 22 14 22 14 20 C10.37 20 6.74 20 3 20 C3 22.97 3 25.94 3 29 C2.01 29 1.02 29 0 29 C0 19.43 0 9.86 0 0 Z " fill="#A58675" transform="translate(310,339)"/>
<path d="M0 0 C2.51625 -0.103125 5.0325 -0.20625 7.625 -0.3125 C8.79603271 -0.38078003 8.79603271 -0.38078003 9.99072266 -0.45043945 C13.95686214 -0.52847342 16.3332651 -0.1507921 19.4609375 2.39453125 C22.16752384 5.17190524 22.86328067 5.99739157 23.375 9.75 C22.84628755 14.33217452 21.28537582 15.78929181 18 19 C14.77300936 20.1823026 11.65990918 20.10309416 8.25 20.0625 C7.26515625 20.05347656 6.2803125 20.04445313 5.265625 20.03515625 C4.51796875 20.02355469 3.7703125 20.01195312 3 20 C3 22.97 3 25.94 3 29 C2.01 29 1.02 29 0 29 C0 19.43 0 9.86 0 0 Z " fill="#9B7966" transform="translate(344,339)"/>
<path d="M0 0 C2.3125 0.125 2.3125 0.125 5 1 C8.15431537 5.84816014 8.54274017 10.02247577 8.5 15.625 C8.49935547 16.41245605 8.49871094 17.19991211 8.49804688 18.01123047 C8.31705986 25.17043447 6.46209517 30.69404094 3 37 C-1.92127034 37.16682272 -5.50343896 37.24828052 -10 35 C-9.59007812 34.45730469 -9.18015625 33.91460937 -8.7578125 33.35546875 C-8.21898437 32.64003906 -7.68015625 31.92460937 -7.125 31.1875 C-6.59132813 30.47980469 -6.05765625 29.77210938 -5.5078125 29.04296875 C-2.86578324 25.46322444 -1.75328064 23.65136331 -1.875 19.21875 C-1.89046875 18.29449219 -1.9059375 17.37023437 -1.921875 16.41796875 C-1.94765625 15.45503906 -1.9734375 14.49210937 -2 13.5 C-2.05103139 11.59397771 -2.09309308 9.68768833 -2.125 7.78125 C-2.14820313 6.93626953 -2.17140625 6.09128906 -2.1953125 5.22070312 C-2 3 -2 3 0 0 Z " fill="#DCB398" transform="translate(263,105)"/>
<path d="M0 0 C2.475 0.99 2.475 0.99 5 2 C4.60525785 8.18429371 2.77844876 13.03962269 -1 18 C-7.04016405 23.13289661 -13.87092342 25.28526817 -21.75 25.3125 C-23.44382812 25.33763672 -23.44382812 25.33763672 -25.171875 25.36328125 C-26.10515625 25.24339844 -27.0384375 25.12351562 -28 25 C-28.66 24.01 -29.32 23.02 -30 22 C-29.01 22 -28.02 22 -27 22 C-27 21.67 -27 21.34 -27 21 C-21.555 20.01 -21.555 20.01 -16 19 C-18.64 19 -21.28 19 -24 19 C-21.55392477 16.13530116 -19.14518652 15.07108724 -15.625 13.8125 C-14.68914062 13.46832031 -13.75328125 13.12414062 -12.7890625 12.76953125 C-10.04476969 12.01235242 -7.82903379 11.85083276 -5 12 C-4.731875 11.319375 -4.46375 10.63875 -4.1875 9.9375 C-2.83946694 6.60289191 -1.42463702 3.30256763 0 0 Z " fill="#DCB398" transform="translate(281,239)"/>
<path d="M0 0 C5.36787898 1.88869816 8.45991584 4.91983169 11 10 C11.48293379 17.2440069 10.36454189 21.21105316 5.5625 26.875 C1.71574398 29.8540667 -2.45937883 29.63313567 -7.15234375 29.41796875 C-11.04317292 28.84688683 -13.18517263 27.74265231 -16 25 C-19.56423474 20.01007136 -19.71427182 14.92250384 -19 9 C-15.66677057 0.48174702 -8.27763696 -1.10548246 0 0 Z M-15 8 C-16.74221711 11.48443422 -16.58675154 15.19887045 -16 19 C-14.29748281 22.07469523 -12.18773492 24.40613254 -9 26 C-4.20062265 26.51816286 -0.26590874 26.71207367 4 24.3125 C6.88940602 20.97162429 7.81893412 18.41834936 8.375 14.0625 C7.89385565 10.13315451 6.44484357 8.07351763 4 5 C-2.85906531 0.42728979 -9.68184066 2.27275148 -15 8 Z " fill="#A28270" transform="translate(288,339)"/>
<path d="M0 0 C3.625 1.5 3.625 1.5 6 3 C5.67 3.99 5.34 4.98 5 6 C4.45214844 5.67902344 3.90429688 5.35804688 3.33984375 5.02734375 C-0.93267335 3.15143057 -5.43809238 3.31740345 -10 4 C-12.89683868 6.2015974 -14.39297231 7.78594462 -16 11 C-16.12479781 15.53729197 -15.50938098 19.10858329 -13.25 23.0625 C-8.10839533 26.1276874 -2.84001073 25.38477377 3 25 C3 21.37 3 17.74 3 14 C3.99 14 4.98 14 6 14 C6 17.96 6 21.92 6 26 C0.74922019 29.31628199 -3.9541357 29.87635492 -10 29 C-14.83763525 26.67076821 -17.63619663 23.81852225 -20 19 C-20.82454452 14.31355821 -20.47650352 10.97133409 -18.375 6.6875 C-12.86317472 0.45043455 -8.1250569 -1.14381869 0 0 Z " fill="#A38371" transform="translate(153,339)"/>
<path d="M0 0 C1.8975 -0.061875 3.795 -0.12375 5.75 -0.1875 C7.35101563 -0.23970703 7.35101563 -0.23970703 8.984375 -0.29296875 C12.35541238 0.03452841 13.68796703 0.55034602 16 3 C16.53125 4.9375 16.53125 4.9375 16.5 7 C16.5103125 7.680625 16.520625 8.36125 16.53125 9.0625 C16 11 16 11 14.359375 12.73828125 C11.32045844 14.36339723 9.17612843 14.29922158 5.75 14.1875 C2.90375 14.0946875 2.90375 14.0946875 0 14 C0 9.38 0 4.76 0 0 Z " fill="#FDFDFD" transform="translate(347,342)"/>
<path d="M0 0 C1.8975 -0.061875 3.795 -0.12375 5.75 -0.1875 C7.35101563 -0.23970703 7.35101563 -0.23970703 8.984375 -0.29296875 C12.35541238 0.03452841 13.68796703 0.55034602 16 3 C16.53125 4.9375 16.53125 4.9375 16.5 7 C16.5103125 7.680625 16.520625 8.36125 16.53125 9.0625 C16 11 16 11 14.359375 12.73828125 C11.32045844 14.36339723 9.17612843 14.29922158 5.75 14.1875 C2.90375 14.0946875 2.90375 14.0946875 0 14 C0 9.38 0 4.76 0 0 Z " fill="#FDFDFD" transform="translate(313,342)"/>
<path d="M0 0 C0.99 0 1.98 0 3 0 C3.02187378 0.86951294 3.02187378 0.86951294 3.04418945 1.7565918 C3.11898528 4.40087553 3.21553898 7.04394002 3.3125 9.6875 C3.33505859 10.59951172 3.35761719 11.51152344 3.38085938 12.45117188 C3.5730236 19.27461521 3.5730236 19.27461521 7 25 C9.16415295 25.67584027 9.16415295 25.67584027 11.5 25.4375 C12.2734375 25.41558594 13.046875 25.39367187 13.84375 25.37109375 C16.28880472 25.10035433 16.28880472 25.10035433 19 23 C19.9300889 20.2097333 20.18698769 18.23470458 20.31640625 15.33203125 C20.35830078 14.43935547 20.40019531 13.54667969 20.44335938 12.62695312 C20.48267578 11.69818359 20.52199219 10.76941406 20.5625 9.8125 C20.60568359 8.87212891 20.64886719 7.93175781 20.69335938 6.96289062 C20.79938665 4.64207146 20.90145029 2.32114675 21 0 C21.99 0 22.98 0 24 0 C24.08774066 3.20815845 24.14063706 6.41600462 24.1875 9.625 C24.21263672 10.52863281 24.23777344 11.43226563 24.26367188 12.36328125 C24.32197213 17.68803751 24.01683908 21.4056812 21 26 C17.39537678 29.1805499 13.87680436 29.56954504 9.22265625 29.4296875 C5.41649091 28.69387346 3.64329294 26.77545759 1 24 C-0.25248502 21.49502996 -0.11374406 19.79146726 -0.09765625 16.9921875 C-0.09443359 16.00605469 -0.09121094 15.01992188 -0.08789062 14.00390625 C-0.07951172 12.97136719 -0.07113281 11.93882812 -0.0625 10.875 C-0.05798828 9.83472656 -0.05347656 8.79445313 -0.04882812 7.72265625 C-0.03701952 5.14838038 -0.02055075 2.57421854 0 0 Z " fill="#9F7E6B" transform="translate(200,339)"/>
<path d="M0 0 C0.78375 0.495 1.5675 0.99 2.375 1.5 C2.045 2.49 1.715 3.48 1.375 4.5 C0.81683594 4.17773438 0.25867188 3.85546875 -0.31640625 3.5234375 C-4.29960517 1.75762004 -8.3555181 1.91968207 -12.625 2.5 C-15.55923195 4.29646854 -17.09705355 5.4441071 -18.625 8.5 C-19.18012815 13.13213493 -19.2614242 16.48172127 -16.75 20.5 C-13.6486394 23.41892763 -11.9147843 23.65660397 -7.75 23.6875 C-6.88632813 23.70167969 -6.02265625 23.71585937 -5.1328125 23.73046875 C-2.5008712 23.48859252 -0.88519456 22.82983541 1.375 21.5 C1.375 22.82 1.375 24.14 1.375 25.5 C-3.41422016 28.05425075 -8.3363541 28.17803153 -13.625 27.5 C-17.3542443 25.73708451 -19.11695941 24.21125683 -21.5 20.875 C-23.47704528 14.94386417 -23.71906538 9.72865171 -20.9375 4.0625 C-15.04060121 -2.47190136 -8.0724353 -3.34031806 0 0 Z " fill="#A38472" transform="translate(257.625,340.5)"/>
<path d="M0 0 C0.80917656 4.58533383 0.93391785 7.33041073 0 12 C12.87 12.495 12.87 12.495 26 13 C26.66 11.02 27.32 9.04 28 7 C28.66 6.34 29.32 5.68 30 5 C29.43945339 8.36327963 28.58158962 10.99112219 27 14 C22.71331312 14.04975174 18.42678303 14.0858847 14.13989258 14.10986328 C12.68413359 14.1198685 11.22839443 14.13347696 9.77270508 14.15087891 C7.6700346 14.17537044 5.56763176 14.18653794 3.46484375 14.1953125 C2.202771 14.20578613 0.94069824 14.21625977 -0.35961914 14.22705078 C-5.14579743 13.92853654 -9.51959073 13.48040927 -13 10 C-12.93359375 7.55078125 -12.93359375 7.55078125 -12 5 C-9.78515625 3.41796875 -9.78515625 3.41796875 -7.0625 2.1875 C-6.16660156 1.76855469 -5.27070313 1.34960938 -4.34765625 0.91796875 C-2 0 -2 0 0 0 Z " fill="#DBB297" transform="translate(243,301)"/>
<path d="M0 0 C0.99 0 1.98 0 3 0 C3 8.58 3 17.16 3 26 C8.28 26 13.56 26 19 26 C19 26.99 19 27.98 19 29 C12.73 29 6.46 29 0 29 C0 19.43 0 9.86 0 0 Z " fill="#A1816E" transform="translate(172,339)"/>
<path d="M0 0 C11 0 11 0 14 2 C10.37 2 6.74 2 3 2 C3 6.95 3 11.9 3 17 C6.63 17 10.26 17 14 17 C13.67 17.66 13.34 18.32 13 19 C9.7 19 6.4 19 3 19 C3 22.3 3 25.6 3 29 C2.01 29 1.02 29 0 29 C0 19.43 0 9.86 0 0 Z " fill="#9A7864" transform="translate(310,339)"/>
<path d="M0 0 C0.33 0 0.66 0 1 0 C0.67 10.89 0.34 21.78 0 33 C2.31 33.99 4.62 34.98 7 36 C3.63458162 37.08174162 2.70152678 36.92538169 -1 36 C-1.99 42.27 -2.98 48.54 -4 55 C-2.35 55.66 -0.7 56.32 1 57 C1.33 57.66 1.66 58.32 2 59 C2.99 58.01 3.98 57.02 5 56 C3.68775452 59.93673644 2.08089673 62.22719294 -1 65 C-1 62.69 -1 60.38 -1 58 C-2.65 57.67 -4.3 57.34 -6 57 C-5.71699043 53.87415475 -5.42194304 50.74954993 -5.125 47.625 C-5.04636719 46.75488281 -4.96773438 45.88476562 -4.88671875 44.98828125 C-4.46642182 40.6236593 -3.91419965 36.39593121 -2.96484375 32.11328125 C-1.73473069 26.28630914 -1.58733203 20.50096464 -1.4375 14.5625 C-1.37762047 12.43868786 -1.31399476 10.31497706 -1.24609375 8.19140625 C-1.22216553 7.26529541 -1.1982373 6.33918457 -1.17358398 5.38500977 C-1 3 -1 3 0 0 Z " fill="#63564E" transform="translate(286,183)"/>
<path d="M0 0 C6.0546875 -0.1953125 6.0546875 -0.1953125 8 0 C10 2 10 2 10.25 4.9375 C10 8 10 8 8 11 C6.0546875 11.29296875 6.0546875 11.29296875 3.875 11.1875 C1.956875 11.0946875 1.956875 11.0946875 0 11 C0 7.37 0 3.74 0 0 Z " fill="#53504F" transform="translate(194,411)"/>
<path d="M0 0 C2 2 2 2 2.25 4.9375 C2 8 2 8 0 11 C-3 11.375 -3 11.375 -6 11 C-8.15502531 7.76746204 -8.46856135 6.74849077 -8 3 C-5.84871852 -0.2835349 -3.77529378 -0.48401202 0 0 Z " fill="#6D6B6A" transform="translate(239,411)"/>
<path d="M0 0 C1.33359073 6.42548263 1.33359073 6.42548263 -0.125 8.9375 C-2.596692 10.33812547 -4.20155166 10.35877543 -7 10 C-9 8 -9 8 -9.3125 5.0625 C-9 2 -9 2 -7.875 0.0625 C-5.07329973 -1.52513015 -3.03014356 -0.74070176 0 0 Z " fill="#5E5B5B" transform="translate(381,392)"/>
<path d="M0 0 C2.64 0 5.28 0 8 0 C8.3449145 1.33038449 8.67516582 2.66457061 9 4 C9.226875 4.86625 9.45375 5.7325 9.6875 6.625 C9.790625 7.40875 9.89375 8.1925 10 9 C8 11 8 11 6.0546875 11.1953125 C4.03645833 11.13020833 2.01822917 11.06510417 0 11 C0 7.37 0 3.74 0 0 Z " fill="#888686" transform="translate(284,411)"/>
<path d="M0 0 C2.5 0.25 2.5 0.25 4.5 2.25 C4.75 5.75 4.75 5.75 4.5 9.25 C2.5 11.25 2.5 11.25 0 11.5 C-2.5 11.25 -2.5 11.25 -4.5 9.25 C-4.75 5.75 -4.75 5.75 -4.5 2.25 C-2.5 0.25 -2.5 0.25 0 0 Z " fill="#504D4C" transform="translate(326.5,390.75)"/>
<path d="M0 0 C4.55618095 0.17867376 6.51909527 0.56002333 9.9375 3.6875 C12.22665878 7.36402773 12.8788387 8.78157423 12 13 C10.52791483 15.37049009 9.0050095 16.9949905 7 19 C6.34 19 5.68 19 5 19 C5.33 18.34 5.66 17.68 6 17 C7.32269101 13.03192697 7.34260633 10.17979726 7 6 C3.59568053 3.73045369 1.83475798 3.63450051 -2.1875 3.375 C-3.27417969 3.30023438 -4.36085938 3.22546875 -5.48046875 3.1484375 C-6.31191406 3.09945313 -7.14335937 3.05046875 -8 3 C-8 2.67 -8 2.34 -8 2 C-5.36 1.67 -2.72 1.34 0 1 C0 0.67 0 0.34 0 0 Z " fill="#A68776" transform="translate(355,339)"/>
<path d="M0 0 C0.721875 0.185625 1.44375 0.37125 2.1875 0.5625 C5.12826973 1.01995307 7.14103058 0.73516357 10 0 C9.85957123 1.64630328 9.71250671 3.29204179 9.5625 4.9375 C9.48128906 5.85402344 9.40007812 6.77054687 9.31640625 7.71484375 C9 10 9 10 8 11 C5.5625 11.1875 5.5625 11.1875 3 11 C0.60236815 8.60236815 0.65719414 7.66726502 0.375 4.375 C0.30023438 3.55773437 0.22546875 2.74046875 0.1484375 1.8984375 C0.09945312 1.27195312 0.05046875 0.64546875 0 0 Z " fill="#A2A0A0" transform="translate(246,411)"/>
<path d="M0 0 C0.66 0 1.32 0 2 0 C2.33 2.64 2.66 5.28 3 8 C2.030625 8.28875 1.06125 8.5775 0.0625 8.875 C-3.10664203 9.64214682 -3.10664203 9.64214682 -4 12 C-6.97 11.505 -6.97 11.505 -10 11 C-9.8125 9.1875 -9.8125 9.1875 -9 7 C-4.82142857 4 -4.82142857 4 -2 4 C-1.34 2.68 -0.68 1.36 0 0 Z " fill="#947562" transform="translate(213,210)"/>
<path d="M0 0 C1 3 1 3 -0.4375 6.1875 C-1.2109375 7.5796875 -1.2109375 7.5796875 -2 9 C-6.28668688 9.04975174 -10.57321697 9.0858847 -14.86010742 9.10986328 C-16.31586641 9.1198685 -17.77160557 9.13347696 -19.22729492 9.15087891 C-21.3299654 9.17537044 -23.43236824 9.18653794 -25.53515625 9.1953125 C-26.797229 9.20578613 -28.05930176 9.21625977 -29.35961914 9.22705078 C-33.19530772 8.98781865 -36.38613553 8.2966183 -40 7 C-41.4375 4.875 -41.4375 4.875 -42 3 C-41.2265625 3.7115625 -41.2265625 3.7115625 -40.4375 4.4375 C-37.33217325 6.42809407 -34.63367496 6.65060818 -31 7 C-30.67 5.02 -30.34 3.04 -30 1 C-29.67 1 -29.34 1 -29 1 C-29 2.98 -29 4.96 -29 7 C-16.13 7.495 -16.13 7.495 -3 8 C-2.34 6.02 -1.68 4.04 -1 2 C-0.67 1.34 -0.34 0.68 0 0 Z " fill="#776F6A" transform="translate(272,306)"/>
<path d="M0 0 C2.31 0 4.62 0 7 0 C7.12375 0.70125 7.2475 1.4025 7.375 2.125 C8.03838345 5.17656387 8.97211955 8.05340938 10 11 C6.73045798 10.43628586 5.17424117 9.50037734 3 7 C3.33 8.32 3.66 9.64 4 11 C2.68 10.67 1.36 10.34 0 10 C0 6.7 0 3.4 0 0 Z " fill="#4E4B4A" transform="translate(262,411)"/>
<path d="M0 0 C1.65 0 3.3 0 5 0 C5 1.32 5 2.64 5 4 C5.33 2.68 5.66 1.36 6 0 C7.32 0.33 8.64 0.66 10 1 C9.34 1.66 8.68 2.32 8 3 C8.35299007 6.44165321 9.04581692 8.06872538 11 11 C9.68 11 8.36 11 7 11 C6.67 9.68 6.34 8.36 6 7 C5.34 7 4.68 7 4 7 C4.33 8.32 4.66 9.64 5 11 C3.35 11 1.7 11 0 11 C0 7.37 0 3.74 0 0 Z " fill="#696766" transform="translate(219,391)"/>
<path d="M0 0 C4.29425875 1.07356469 4.74740471 1.5084773 7 5 C7 3.35 7 1.7 7 0 C8.32 0.33 9.64 0.66 11 1 C10.67 4.3 10.34 7.6 10 11 C9.01 11 8.02 11 7 11 C5.02 7.535 5.02 7.535 3 4 C2.67 5.98 2.34 7.96 2 10 C2.66 10.33 3.32 10.66 4 11 C2.68 10.67 1.36 10.34 0 10 C0 6.7 0 3.4 0 0 Z " fill="#4F4C4B" transform="translate(178,411)"/>
<path d="M0 0 C5.28 0 10.56 0 16 0 C16 0.66 16 1.32 16 2 C15.01 2.495 15.01 2.495 14 3 C14.33 4.32 14.66 5.64 15 7 C12.35319096 6.88660796 9.70822482 6.75987127 7.0625 6.625 C6.30775391 6.5940625 5.55300781 6.563125 4.77539062 6.53125 C2.84492605 6.4273685 0.92057919 6.22104386 -1 6 C-1.33 5.34 -1.66 4.68 -2 4 C2.29 4 6.58 4 11 4 C7.37 3.01 3.74 2.02 0 1 C0 0.67 0 0.34 0 0 Z " fill="#665952" transform="translate(255,205)"/>
<path d="M0 0 C1.65 0 3.3 0 5 0 C4.67 3.3 4.34 6.6 4 10 C4.99 9.67 5.98 9.34 7 9 C7 6.03 7 3.06 7 0 C8.32 0.33 9.64 0.66 11 1 C10.25 8.75 10.25 8.75 8 11 C5.5 11.25 5.5 11.25 3 11 C0.60236815 8.60236815 0.65719414 7.66726502 0.375 4.375 C0.30023438 3.55773437 0.22546875 2.74046875 0.1484375 1.8984375 C0.09945312 1.27195312 0.05046875 0.64546875 0 0 Z " fill="#6E6B6B" transform="translate(153,391)"/>
<path d="M0 0 C0.99 0.33 1.98 0.66 3 1 C3.94921875 3.28515625 3.94921875 3.28515625 4.6875 6.0625 C5.06455078 7.44115234 5.06455078 7.44115234 5.44921875 8.84765625 C5.63097656 9.55792969 5.81273437 10.26820313 6 11 C4.68 10.67 3.36 10.34 2 10 C2.33 9.34 2.66 8.68 3 8 C1.68 8 0.36 8 -1 8 C-1 8.99 -1 9.98 -1 11 C-1.99 10.67 -2.98 10.34 -4 10 C-2.68 6.7 -1.36 3.4 0 0 Z " fill="#52504F" transform="translate(208,391)"/>
<path d="M0 0 C1.32 0.33 2.64 0.66 4 1 C5.046875 3.28515625 5.046875 3.28515625 5.75 6.0625 C5.99234375 6.98160156 6.2346875 7.90070313 6.484375 8.84765625 C6.65453125 9.55792969 6.8246875 10.26820313 7 11 C5.68 10.67 4.36 10.34 3 10 C3.33 9.34 3.66 8.68 4 8 C2.35 8 0.7 8 -1 8 C-0.67 8.99 -0.34 9.98 0 11 C-0.99 10.67 -1.98 10.34 -3 10 C-2.01 6.7 -1.02 3.4 0 0 Z " fill="#555251" transform="translate(166,411)"/>
<path d="M0 0 C1.32 0.33 2.64 0.66 4 1 C5.046875 3.28515625 5.046875 3.28515625 5.75 6.0625 C5.99234375 6.98160156 6.2346875 7.90070313 6.484375 8.84765625 C6.65453125 9.55792969 6.8246875 10.26820313 7 11 C5.68 10.67 4.36 10.34 3 10 C3.33 9.34 3.66 8.68 4 8 C2.35 8 0.7 8 -1 8 C-0.67 8.99 -0.34 9.98 0 11 C-0.99 10.67 -1.98 10.34 -3 10 C-2.01 6.7 -1.02 3.4 0 0 Z " fill="#555251" transform="translate(273,391)"/>
<path d="M0 0 C6.75 -0.125 6.75 -0.125 9 1 C9 2.32 9 3.64 9 5 C8.34 5 7.68 5 7 5 C7.99 6.98 8.98 8.96 10 11 C9.01 11 8.02 11 7 11 C4.57142857 4.71428571 4.57142857 4.71428571 6 1 C5.01 1 4.02 1 3 1 C3 3.97 3 6.94 3 10 C3.66 10.33 4.32 10.66 5 11 C3.35 11 1.7 11 0 11 C0 7.37 0 3.74 0 0 Z " fill="#595756" transform="translate(285,391)"/>
<path d="M0 0 C0.66 0.33 1.32 0.66 2 1 C2.34421176 2.33056648 2.67558881 3.6644678 3 5 C3.80449466 6.44545269 4.66095268 7.86300412 5.5625 9.25 C6.01753906 9.95640625 6.47257812 10.6628125 6.94140625 11.390625 C7.29074219 11.92171875 7.64007813 12.4528125 8 13 C4 13 4 13 2.515625 11.5390625 C2.09796875 10.90742188 1.6803125 10.27578125 1.25 9.625 C0.82203125 8.99851562 0.3940625 8.37203125 -0.046875 7.7265625 C-1 6 -1 6 -1 4 C-4.63 4 -8.26 4 -12 4 C-12 3.67 -12 3.34 -12 3 C-10.95199219 2.92652344 -10.95199219 2.92652344 -9.8828125 2.8515625 C-8.97273438 2.77679688 -8.06265625 2.70203125 -7.125 2.625 C-6.22007812 2.55539062 -5.31515625 2.48578125 -4.3828125 2.4140625 C-1.82058097 2.20431868 -1.82058097 2.20431868 0 0 Z " fill="#A28270" transform="translate(325,355)"/>
<path d="M0 0 C0.99 0 1.98 0 3 0 C4.32 3.63 5.64 7.26 7 11 C3.89619499 10.22404875 1.74997221 9.4731994 -1 8 C-0.67 8.99 -0.34 9.98 0 11 C-1.32 10.67 -2.64 10.34 -4 10 C-3.01 8.02 -2.02 6.04 -1 4 C-0.67 4.99 -0.34 5.98 0 7 C0.66 7 1.32 7 2 7 C1.67 6.401875 1.34 5.80375 1 5.1875 C0 3 0 3 0 0 Z " fill="#5A5857" transform="translate(302,411)"/>
<path d="M0 0 C2.97 0 5.94 0 9 0 C8.67 1.32 8.34 2.64 8 4 C8 3.01 8 2.02 8 1 C7.34 1 6.68 1 6 1 C6 3.97 6 6.94 6 10 C6.66 10.33 7.32 10.66 8 11 C6.02 11 4.04 11 2 11 C2.33 7.7 2.66 4.4 3 1 C2.34 1 1.68 1 1 1 C0.67 1.99 0.34 2.98 0 4 C0 2.68 0 1.36 0 0 Z " fill="#646261" transform="translate(190,391)"/>
<path d="M0 0 C2.97 0 5.94 0 9 0 C8.67 1.32 8.34 2.64 8 4 C8 3.01 8 2.02 8 1 C7.34 1 6.68 1 6 1 C6 3.97 6 6.94 6 10 C6.66 10.33 7.32 10.66 8 11 C6.02 11 4.04 11 2 11 C2.33 7.7 2.66 4.4 3 1 C2.34 1 1.68 1 1 1 C0.67 1.99 0.34 2.98 0 4 C0 2.68 0 1.36 0 0 Z " fill="#646261" transform="translate(131,391)"/>
<path d="M0 0 C1.32 0.33 2.64 0.66 4 1 C4 1.66 4 2.32 4 3 C4.66 3.33 5.32 3.66 6 4 C6 2.68 6 1.36 6 0 C7.32 0.33 8.64 0.66 10 1 C9.505 1.721875 9.01 2.44375 8.5 3.1875 C6.92080715 6.14848659 6.71821688 7.71253029 7 11 C5.35 11 3.7 11 2 11 C2.04125 10.113125 2.0825 9.22625 2.125 8.3125 C2.00102754 5.02722987 1.38612096 2.94550705 0 0 Z " fill="#666363" transform="translate(328,411)"/>
<path d="M0 0 C1.32 0.33 2.64 0.66 4 1 C4 1.66 4 2.32 4 3 C4.66 3.33 5.32 3.66 6 4 C6 2.68 6 1.36 6 0 C7.32 0.33 8.64 0.66 10 1 C9.505 1.721875 9.01 2.44375 8.5 3.1875 C6.92080715 6.14848659 6.71821688 7.71253029 7 11 C5.35 11 3.7 11 2 11 C2.04125 10.113125 2.0825 9.22625 2.125 8.3125 C2.00102754 5.02722987 1.38612096 2.94550705 0 0 Z " fill="#666363" transform="translate(217,411)"/>
<path d="M0 0 C0 0.99 0 1.98 0 3 C-0.66 3 -1.32 3 -2 3 C-2 2.34 -2 1.68 -2 1 C-2.66 1.66 -3.32 2.32 -4 3 C-1.525 4.98 -1.525 4.98 1 7 C0.34 8.32 -0.32 9.64 -1 11 C-2.98 11 -4.96 11 -7 11 C-7 10.01 -7 9.02 -7 8 C-6.34 8 -5.68 8 -5 8 C-5 8.66 -5 9.32 -5 10 C-4.01 10 -3.02 10 -2 10 C-2 9.01 -2 8.02 -2 7 C-4.475 6.01 -4.475 6.01 -7 5 C-7 3.68 -7 2.36 -7 1 C-4.53721199 -0.231394 -2.7204945 -0.07159196 0 0 Z " fill="#62605F" transform="translate(176,391)"/>
<path d="M0 0 C1.65 0 3.3 0 5 0 C4.67 3.3 4.34 6.6 4 10 C4.99 10 5.98 10 7 10 C7 9.01 7 8.02 7 7 C7.66 7 8.32 7 9 7 C9 8.32 9 9.64 9 11 C6.03 11 3.06 11 0 11 C0 7.37 0 3.74 0 0 Z " fill="#6C6A69" transform="translate(103,391)"/>
<path d="M0 0 C1.65 0 3.3 0 5 0 C5.33 1.32 5.66 2.64 6 4 C6.33 2.68 6.66 1.36 7 0 C7.99 0.33 8.98 0.66 10 1 C9.67 1.53625 9.34 2.0725 9 2.625 C7.77300796 5.5391061 7.85766714 7.86867708 8 11 C6.35 11 4.7 11 3 11 C3.0928125 9.6696875 3.0928125 9.6696875 3.1875 8.3125 C2.98048018 4.65514983 2.083926 2.95222849 0 0 Z " fill="#615F5E" transform="translate(357,391)"/>
<path d="M0 0 C0 0.99 0 1.98 0 3 C-0.66 3 -1.32 3 -2 3 C-2 2.34 -2 1.68 -2 1 C-2.99 1.33 -3.98 1.66 -5 2 C-5 4.31 -5 6.62 -5 9 C-4.01 9.33 -3.02 9.66 -2 10 C-2 9.34 -2 8.68 -2 8 C-1.34 8 -0.68 8 0 8 C0 8.99 0 9.98 0 11 C-3.375 11.1875 -3.375 11.1875 -7 11 C-9.15502531 7.76746204 -9.46856135 6.74849077 -9 3 C-6.71619742 -0.67945972 -4.04424788 -0.26961653 0 0 Z " fill="#676463" transform="translate(265,391)"/>
<path d="M0 0 C2.31 0 4.62 0 7 0 C7.33 1.32 7.66 2.64 8 4 C6 4 6 4 4.375 2.5 C3.694375 1.7575 3.694375 1.7575 3 1 C3 2.32 3 3.64 3 5 C3.99 5.33 4.98 5.66 6 6 C5.01 6 4.02 6 3 6 C3 7.32 3 8.64 3 10 C4.65 9.67 6.3 9.34 8 9 C7.67 9.66 7.34 10.32 7 11 C4.69 11 2.38 11 0 11 C0 7.37 0 3.74 0 0 Z " fill="#494746" transform="translate(314,411)"/>
<path d="M0 0 C2.64 0 5.28 0 8 0 C7.67 0.99 7.34 1.98 7 3 C7 2.34 7 1.68 7 1 C5.68 1 4.36 1 3 1 C3 2.32 3 3.64 3 5 C3.99 5.33 4.98 5.66 6 6 C5.01 6 4.02 6 3 6 C3 7.32 3 8.64 3 10 C4.32 10 5.64 10 7 10 C7 9.34 7 8.68 7 8 C7.66 8 8.32 8 9 8 C9 8.99 9 9.98 9 11 C6.03 11 3.06 11 0 11 C0 7.37 0 3.74 0 0 Z " fill="#585554" transform="translate(117,391)"/>
<path d="M0 0 C2.64 0 5.28 0 8 0 C7.67 0.99 7.34 1.98 7 3 C5.68 2.34 4.36 1.68 3 1 C3 2.32 3 3.64 3 5 C3.99 4.67 4.98 4.34 6 4 C5.67 4.99 5.34 5.98 5 7 C4.34 6.67 3.68 6.34 3 6 C3 7.32 3 8.64 3 10 C4.65 9.67 6.3 9.34 8 9 C8 9.66 8 10.32 8 11 C5.36 11 2.72 11 0 11 C0 7.37 0 3.74 0 0 Z " fill="#4E4B4A" transform="translate(300,391)"/>
<path d="M0 0 C1.32 0.33 2.64 0.66 4 1 C4 3.64 4 6.28 4 9 C4.99 9 5.98 9 7 9 C7 6.03 7 3.06 7 0 C7.99 0.33 8.98 0.66 10 1 C9.85950482 2.47968324 9.71245174 3.95874516 9.5625 5.4375 C9.48128906 6.26121094 9.40007812 7.08492188 9.31640625 7.93359375 C9 10 9 10 8 11 C5 11.125 5 11.125 2 11 C0.33657163 9.33657163 0.63951903 7.2174291 0.4375 4.9375 C0.35371094 4.01839844 0.26992188 3.09929687 0.18359375 2.15234375 C0.09271484 1.08693359 0.09271484 1.08693359 0 0 Z " fill="#524F4E" transform="translate(387,391)"/>
<path d="M0 0 C2.31 0 4.62 0 7 0 C6.67 0.66 6.34 1.32 6 2 C5.01 1.67 4.02 1.34 3 1 C3 2.32 3 3.64 3 5 C3.99 4.67 4.98 4.34 6 4 C5.67 4.99 5.34 5.98 5 7 C4.34 6.67 3.68 6.34 3 6 C3 7.32 3 8.64 3 10 C4.32 10 5.64 10 7 10 C7.33 9.34 7.66 8.68 8 8 C8 8.99 8 9.98 8 11 C5.36 11 2.72 11 0 11 C0 7.37 0 3.74 0 0 Z " fill="#4B4847" transform="translate(235,391)"/>
<path d="M0 0 C2.0625 0.4375 2.0625 0.4375 4 1 C4 3.31 4 5.62 4 8 C2.0625 8.5625 2.0625 8.5625 0 9 C-1 8 -1 8 -1.125 4.5 C-1 1 -1 1 0 0 Z " fill="#EFEFEF" transform="translate(325,392)"/>
<path d="M0 0 C0.99 0 1.98 0 3 0 C3 2.64 3 5.28 3 8 C1.0625 8.5625 1.0625 8.5625 -1 9 C-2 8 -2 8 -2.1875 5.0625 C-2 2 -2 2 0 0 Z " fill="#F2F2F1" transform="translate(392,392)"/>
<path d="M0 0 C4 1 4 1 5 2 C5.1875 4.4375 5.1875 4.4375 5 7 C4.34 7.66 3.68 8.32 3 9 C2.01 9 1.02 9 0 9 C0 6.03 0 3.06 0 0 Z " fill="#E7E7E6" transform="translate(197,412)"/>
<path d="M0 0 C2.4375 0.8125 2.4375 0.8125 5 2 C5.33 2.99 5.66 3.98 6 5 C9.3 5.33 12.6 5.66 16 6 C16 6.33 16 6.66 16 7 C12 7 8 7 4 7 C3.01 7.495 3.01 7.495 2 8 C1.34 5.36 0.68 2.72 0 0 Z " fill="#8F796B" transform="translate(248,256)"/>
<path d="M0 0 C0.99 0.33 1.98 0.66 3 1 C3 3.31 3 5.62 3 8 C1.68 8.33 0.36 8.66 -1 9 C-1.625 5.625 -1.625 5.625 -2 2 C-1.34 1.34 -0.68 0.68 0 0 Z " fill="#F1F1F1" transform="translate(376,392)"/>
<path d="M0 0 C2.64 0 5.28 0 8 0 C7.67 0.99 7.34 1.98 7 3 C5.68 2.34 4.36 1.68 3 1 C3 2.32 3 3.64 3 5 C3.99 5.33 4.98 5.66 6 6 C5.01 6 4.02 6 3 6 C3 7.32 3 8.64 3 10 C3.66 10.33 4.32 10.66 5 11 C3.35 11 1.7 11 0 11 C0 7.37 0 3.74 0 0 Z " fill="#4B4848" transform="translate(337,391)"/>
<path d="M0 0 C0.99 0.33 1.98 0.66 3 1 C3.6875 3.0625 3.6875 3.0625 4 5 C4.66 5 5.32 5 6 5 C6 5.99 6 6.98 6 8 C4.02 8.33 2.04 8.66 0 9 C0 6.03 0 3.06 0 0 Z " fill="#C5C4C4" transform="translate(317,412)"/>
<path d="M0 0 C1.32 0.33 2.64 0.66 4 1 C4 2.98 4 4.96 4 7 C4.66 7 5.32 7 6 7 C5.67 7.99 5.34 8.98 5 10 C3.35 9.67 1.7 9.34 0 9 C0 7.68 0 6.36 0 5 C0.66 4.67 1.32 4.34 2 4 C1.34 4 0.68 4 0 4 C0 2.68 0 1.36 0 0 Z " fill="#E1E1E0" transform="translate(303,392)"/>
<path d="M0 0 C1.43836751 0.11458693 2.87570966 0.24209116 4.3125 0.375 C5.51326172 0.47941406 5.51326172 0.47941406 6.73828125 0.5859375 C9 1 9 1 12 3 C11.67 3.99 11.34 4.98 11 6 C9.948125 5.525625 8.89625 5.05125 7.8125 4.5625 C4.89824149 3.30676259 2.15253086 2.47765619 -1 2 C-0.67 1.34 -0.34 0.68 0 0 Z " fill="#A1816E" transform="translate(147,339)"/>
<path d="M0 0 C-0.99 0.495 -0.99 0.495 -2 1 C1.3 1 4.6 1 8 1 C5.31907309 3.68092691 3.60832637 3.38670257 -0.125 3.625 C-1.22070312 3.69976562 -2.31640625 3.77453125 -3.4453125 3.8515625 C-4.28835937 3.90054687 -5.13140625 3.94953125 -6 4 C-6.66 3.01 -7.32 2.02 -8 1 C-3.375 -1.125 -3.375 -1.125 0 0 Z " fill="#72645A" transform="translate(260,256)"/>
<path d="M0 0 C0.99 0.33 1.98 0.66 3 1 C3 3.31 3 5.62 3 8 C1.68 8 0.36 8 -1 8 C-1.04241723 5.66705225 -1.04092937 3.33297433 -1 1 C-0.67 0.67 -0.34 0.34 0 0 Z " fill="#FDFDFD" transform="translate(235,412)"/>
<path d="M0 0 C0.66 0.33 1.32 0.66 2 1 C1 4 1 4 -1.125 5.1875 C-4.51418301 6.14531259 -7.49471861 6.13746202 -11 6 C-11 5.34 -11 4.68 -11 4 C-9.1128125 3.566875 -9.1128125 3.566875 -7.1875 3.125 C-4.1460601 2.42696461 -2.69330122 1.79553415 0 0 Z " fill="#9E7C69" transform="translate(258,362)"/>
<path d="M0 0 C3 1 3 1 4.16796875 3.06640625 C4.50441406 3.89011719 4.84085937 4.71382813 5.1875 5.5625 C5.53167969 6.38878906 5.87585938 7.21507812 6.23046875 8.06640625 C6.48441406 8.70449219 6.73835938 9.34257812 7 10 C3.76983566 9.27254563 1.9408457 8.81422626 0 6 C-0.1875 2.8125 -0.1875 2.8125 0 0 Z " fill="#9C9B9A" transform="translate(265,412)"/>
<path d="M0 0 C0.33 0 0.66 0 1 0 C0.67 3.63 0.34 7.26 0 11 C-0.66 10.34 -1.32 9.68 -2 9 C-2.99 9.495 -2.99 9.495 -4 10 C-3.4359146 6.05140217 -2.2568294 3.29120954 0 0 Z " fill="#786458" transform="translate(208,159)"/>
<path d="M0 0 C0.99 0.33 1.98 0.66 3 1 C3.8125 2.9375 3.8125 2.9375 4 5 C3.34 5.66 2.68 6.32 2 7 C-0.125 6.625 -0.125 6.625 -2 6 C-1.34 4.02 -0.68 2.04 0 0 Z " fill="#8D8C8B" transform="translate(208,391)"/>
<path d="M0 0 C1.98 0.99 1.98 0.99 4 2 C4.25 7.625 4.25 7.625 2 11 C1.34 11 0.68 11 0 11 C0.29296875 9.01432292 0.5859375 7.02864583 0.87890625 5.04296875 C1.13904799 2.7974658 1.13904799 2.7974658 0 0 Z " fill="#5E5C5B" transform="translate(200,411)"/>
<path d="M0 0 C2.31 0.33 4.62 0.66 7 1 C6.67 1.99 6.34 2.98 6 4 C-0.93 3.505 -0.93 3.505 -8 3 C-8 2.67 -8 2.34 -8 2 C-5.36 1.67 -2.72 1.34 0 1 C0 0.67 0 0.34 0 0 Z " fill="#AE9282" transform="translate(355,339)"/>
<path d="M0 0 C2.31 0.33 4.62 0.66 7 1 C6.67 1.99 6.34 2.98 6 4 C-0.93 3.505 -0.93 3.505 -8 3 C-8 2.67 -8 2.34 -8 2 C-5.36 1.67 -2.72 1.34 0 1 C0 0.67 0 0.34 0 0 Z " fill="#AE9282" transform="translate(321,339)"/>
<path d="M0 0 C1.37095624 3.69037278 0.60010967 5.70883835 -0.9375 9.25 C-1.31777344 10.14203125 -1.69804687 11.0340625 -2.08984375 11.953125 C-2.54037109 12.96632812 -2.54037109 12.96632812 -3 14 C-4.65 14 -6.3 14 -8 14 C-7.236875 13.360625 -6.47375 12.72125 -5.6875 12.0625 C-2.24936764 8.68297217 -1.22086326 4.55590437 0 0 Z " fill="#625851" transform="translate(300,212)"/>
<path d="M0 0 C1.32 0.33 2.64 0.66 4 1 C4 2.65 4 4.3 4 6 C3.01 6 2.02 6 1 6 C0.67 6.99 0.34 7.98 0 9 C0 6.03 0 3.06 0 0 Z " fill="#D5D5D5" transform="translate(340,392)"/>
<path d="M0 0 C-1.65 0.33 -3.3 0.66 -5 1 C-5.33 3.31 -5.66 5.62 -6 8 C-6.33 8 -6.66 8 -7 8 C-7 6.35 -7 4.7 -7 3 C-8.32 3.33 -9.64 3.66 -11 4 C-7.84441727 0.34616736 -4.73375145 -1.57791715 0 0 Z " fill="#675B53" transform="translate(250,298)"/>
<path d="M0 0 C0.33 0 0.66 0 1 0 C1 2.97 1 5.94 1 9 C0.34 9 -0.32 9 -1 9 C-1.625 5.625 -1.625 5.625 -2 2 C-1.34 1.34 -0.68 0.68 0 0 Z " fill="#615F5E" transform="translate(233,412)"/>
<path d="M0 0 C1.32 0.33 2.64 0.66 4 1 C3.67 4.3 3.34 7.6 3 11 C-0.317124 6.577168 -0.30466674 5.28089024 0 0 Z " fill="#848382" transform="translate(185,411)"/>
<path d="M0 0 C0.99 0 1.98 0 3 0 C2.5020163 3.73487777 2.12508244 5.81237635 0 9 C0 6.03 0 3.06 0 0 Z " fill="#CBCACA" transform="translate(288,392)"/>
<path d="M0 0 C1 3 1 3 0.0625 5.1875 C-0.4634375 6.0846875 -0.4634375 6.0846875 -1 7 C-1.33 6.34 -1.66 5.68 -2 5 C-2.66 5 -3.32 5 -4 5 C-4 3.68 -4 2.36 -4 1 C-2.68 0.67 -1.36 0.34 0 0 Z " fill="#E6E6E6" transform="translate(242,391)"/>
<path d="M0 0 C1.32 0 2.64 0 4 0 C4 1.98 4 3.96 4 6 C2.68 5.34 1.36 4.68 0 4 C0 2.68 0 1.36 0 0 Z " fill="#C8C7C7" transform="translate(120,392)"/>
<path d="M0 0 C2.31 0 4.62 0 7 0 C7.33 1.32 7.66 2.64 8 4 C6 4 6 4 4.375 2.5 C3.694375 1.7575 3.694375 1.7575 3 1 C2.67 2.32 2.34 3.64 2 5 C2 3.68 2 2.36 2 1 C1.34 0.67 0.68 0.34 0 0 Z " fill="#595756" transform="translate(314,411)"/>
<path d="M0 0 C0.99 0.33 1.98 0.66 3 1 C3 2.98 3 4.96 3 7 C2.01 7 1.02 7 0 7 C-0.93423645 3.98968256 -1.04449911 3.13349732 0 0 Z " fill="#A3A1A1" transform="translate(166,411)"/>
<path d="M0 0 C0.99 0.33 1.98 0.66 3 1 C3 2.98 3 4.96 3 7 C2.01 7 1.02 7 0 7 C-0.93423645 3.98968256 -1.04449911 3.13349732 0 0 Z " fill="#A3A1A1" transform="translate(273,391)"/>
<path d="M0 0 C0 0.99 0 1.98 0 3 C-0.99 3.33 -1.98 3.66 -3 4 C-4.20882096 6.00016466 -4.20882096 6.00016466 -5 8 C-5 6.68 -5 5.36 -5 4 C-5.66 3.34 -6.32 2.68 -7 2 C-6.21625 2.04125 -5.4325 2.0825 -4.625 2.125 C-1.83883881 2.28728734 -1.83883881 2.28728734 0 0 Z " fill="#645A55" transform="translate(279,296)"/>
<path d="M0 0 C0.66 0 1.32 0 2 0 C1.34 1.32 0.68 2.64 0 4 C-1.98 4 -3.96 4 -6 4 C-6 3.01 -6 2.02 -6 1 C-5.34 1 -4.68 1 -4 1 C-4 1.66 -4 2.32 -4 3 C-3.01 3 -2.02 3 -1 3 C-0.67 2.01 -0.34 1.02 0 0 Z " fill="#686665" transform="translate(175,398)"/>
</svg>
